<?xml version="1.0" encoding="utf-8" standalone="no"?>
<!DOCTYPE svg PUBLIC "-//W3C//DTD SVG 1.1//EN"
  "http://www.w3.org/Graphics/SVG/1.1/DTD/svg11.dtd">
<svg xmlns:xlink="http://www.w3.org/1999/xlink" width="1254.266518pt" height="1257.480341pt" viewBox="0 0 1254.266518 1257.480341" xmlns="http://www.w3.org/2000/svg" version="1.1">
 <metadata>
  <rdf:RDF xmlns:dc="http://purl.org/dc/elements/1.1/" xmlns:cc="http://creativecommons.org/ns#" xmlns:rdf="http://www.w3.org/1999/02/22-rdf-syntax-ns#">
   <cc:Work>
    <dc:type rdf:resource="http://purl.org/dc/dcmitype/StillImage"/>
    <dc:date>2024-11-04T13:14:09.388633</dc:date>
    <dc:format>image/svg+xml</dc:format>
    <dc:creator>
     <cc:Agent>
      <dc:title>Matplotlib v3.9.2, https://matplotlib.org/</dc:title>
     </cc:Agent>
    </dc:creator>
   </cc:Work>
  </rdf:RDF>
 </metadata>
 <defs>
  <style type="text/css">*{stroke-linejoin: round; stroke-linecap: butt}</style>
 </defs>
 <g id="figure_1">
  <g id="patch_1">
   <path d="M 0 1257.480341 
L 1254.266518 1257.480341 
L 1254.266518 0 
L 0 0 
z
" style="fill: #ffffff"/>
  </g>
  <g id="axes_1">
   <g id="patch_2">
    <path d="M 54.911012 342.534156 
L 1226.711012 342.534156 
L 1226.711012 18.007327 
L 54.911012 18.007327 
z
" style="fill: #ffffff"/>
   </g>
   <g id="line2d_1">
    <path d="M -1 552.852369 
L 54.911012 551.667629 
L 201.386012 547.667998 
L 347.861012 542.615872 
L 377.156012 541.455689 
L 406.451012 540.229302 
L 435.746012 538.935738 
L 465.041012 537.565099 
L 494.336012 536.084013 
L 508.983512 535.298063 
L 523.631012 534.481445 
L 538.278512 533.623342 
L 552.926012 532.70769 
L 567.573512 531.734001 
L 582.221012 530.689025 
L 596.868512 529.544959 
L 611.516012 528.251936 
L 626.163512 520.880147 
L 640.811012 517.663599 
L 655.458512 513.872802 
L 670.106012 509.52663 
L 684.753512 504.430856 
L 699.401012 498.44604 
L 728.696012 482.368981 
L 757.991012 457.855306 
L 787.286012 418.39663 
L 816.581012 349.626149 
L 845.876012 268.249424 
L 860.523512 236.833064 
L 875.171012 212.495174 
L 889.818512 195.703615 
L 904.466012 181.837665 
L 919.113512 170.282347 
L 933.761012 159.094284 
L 948.408512 146.896944 
L 963.056012 135.704013 
L 977.703512 123.939916 
L 992.351012 112.259654 
L 1006.998512 100.95963 
L 1021.646012 89.238803 
L 1050.941012 66.804804 
L 1109.531012 19.415774 
L 1134.375592 -1 
" clip-path="url(#pb32c642147)" style="fill: none; stroke: #ff0000; stroke-opacity: 0.8; stroke-width: 8; stroke-linecap: square"/>
   </g>
   <g id="matplotlib.axis_1">
    <g id="xtick_1">
     <g id="line2d_2">
      <defs>
       <path id="me40595669d" d="M 0 0 
L 0 -3.5 
" style="stroke: #000000; stroke-width: 0.8"/>
      </defs>
      <g>
       <use xlink:href="#me40595669d" x="54.911012" y="18.007327" style="stroke: #000000; stroke-width: 0.8"/>
      </g>
     </g>
    </g>
    <g id="xtick_2">
     <g id="line2d_3">
      <g>
       <use xlink:href="#me40595669d" x="201.386012" y="18.007327" style="stroke: #000000; stroke-width: 0.8"/>
      </g>
     </g>
    </g>
    <g id="xtick_3">
     <g id="line2d_4">
      <g>
       <use xlink:href="#me40595669d" x="347.861012" y="18.007327" style="stroke: #000000; stroke-width: 0.8"/>
      </g>
     </g>
    </g>
    <g id="xtick_4">
     <g id="line2d_5">
      <g>
       <use xlink:href="#me40595669d" x="494.336012" y="18.007327" style="stroke: #000000; stroke-width: 0.8"/>
      </g>
     </g>
    </g>
    <g id="xtick_5">
     <g id="line2d_6">
      <g>
       <use xlink:href="#me40595669d" x="640.811012" y="18.007327" style="stroke: #000000; stroke-width: 0.8"/>
      </g>
     </g>
    </g>
    <g id="xtick_6">
     <g id="line2d_7">
      <g>
       <use xlink:href="#me40595669d" x="787.286012" y="18.007327" style="stroke: #000000; stroke-width: 0.8"/>
      </g>
     </g>
    </g>
    <g id="xtick_7">
     <g id="line2d_8">
      <g>
       <use xlink:href="#me40595669d" x="933.761012" y="18.007327" style="stroke: #000000; stroke-width: 0.8"/>
      </g>
     </g>
    </g>
    <g id="xtick_8">
     <g id="line2d_9">
      <g>
       <use xlink:href="#me40595669d" x="1080.236012" y="18.007327" style="stroke: #000000; stroke-width: 0.8"/>
      </g>
     </g>
    </g>
    <g id="xtick_9">
     <g id="line2d_10">
      <g>
       <use xlink:href="#me40595669d" x="1226.711012" y="18.007327" style="stroke: #000000; stroke-width: 0.8"/>
      </g>
     </g>
    </g>
   </g>
   <g id="matplotlib.axis_2">
    <g id="ytick_1">
     <g id="line2d_11">
      <defs>
       <path id="mfbfcae89a6" d="M 0 0 
L -3.5 0 
" style="stroke: #000000; stroke-width: 0.8"/>
      </defs>
      <g>
       <use xlink:href="#mfbfcae89a6" x="54.911012" y="342.534156" style="stroke: #000000; stroke-width: 0.8"/>
      </g>
     </g>
     <g id="text_1">
      <!-- $\mathdefault{4}$ -->
      <g transform="translate(31.970788 353.341484) scale(0.32 -0.32)">
       <defs>
        <path id="NimbusRomNo9L-Regu-34" d="M 3021 1497 
L 2368 1497 
L 2368 4352 
L 2086 4352 
L 77 1497 
L 77 1088 
L 1875 1088 
L 1875 32 
L 2368 32 
L 2368 1088 
L 3021 1088 
L 3021 1497 
z
M 1869 1497 
L 333 1497 
L 1869 3698 
L 1869 1497 
z
" transform="scale(0.015625)"/>
       </defs>
       <use xlink:href="#NimbusRomNo9L-Regu-34" transform="scale(0.996264)"/>
      </g>
     </g>
    </g>
    <g id="ytick_2">
     <g id="line2d_12">
      <g>
       <use xlink:href="#mfbfcae89a6" x="54.911012" y="234.358547" style="stroke: #000000; stroke-width: 0.8"/>
      </g>
     </g>
     <g id="text_2">
      <!-- $\mathdefault{6}$ -->
      <g transform="translate(31.970788 245.165874) scale(0.32 -0.32)">
       <defs>
        <path id="NimbusRomNo9L-Regu-36" d="M 2854 4391 
C 2125 4327 1754 4205 1286 3879 
C 595 3386 218 2656 218 1802 
C 218 1248 390 688 666 370 
C 909 89 1254 -64 1651 -64 
C 2445 -64 2995 541 2995 1421 
C 2995 2236 2528 2752 1792 2752 
C 1510 2752 1376 2707 973 2464 
C 1146 3431 1862 4122 2867 4288 
L 2854 4391 
z
M 1549 2458 
C 2099 2458 2419 2000 2419 1204 
C 2419 504 2170 116 1722 116 
C 1158 116 813 714 813 1700 
C 813 2025 864 2203 992 2299 
C 1126 2400 1325 2458 1549 2458 
z
" transform="scale(0.015625)"/>
       </defs>
       <use xlink:href="#NimbusRomNo9L-Regu-36" transform="scale(0.996264)"/>
      </g>
     </g>
    </g>
    <g id="ytick_3">
     <g id="line2d_13">
      <g>
       <use xlink:href="#mfbfcae89a6" x="54.911012" y="126.182937" style="stroke: #000000; stroke-width: 0.8"/>
      </g>
     </g>
     <g id="text_3">
      <!-- $\mathdefault{8}$ -->
      <g transform="translate(31.970788 136.990264) scale(0.32 -0.32)">
       <defs>
        <path id="NimbusRomNo9L-Regu-38" d="M 1856 2400 
C 2490 2740 2714 3008 2714 3444 
C 2714 3968 2253 4352 1613 4352 
C 915 4352 397 3924 397 3341 
C 397 2925 518 2740 1190 2151 
C 499 1626 358 1428 358 992 
C 358 372 864 -64 1587 -64 
C 2355 -64 2848 359 2848 1018 
C 2848 1511 2630 1824 1856 2400 
z
M 1741 1741 
C 2208 1408 2362 1178 2362 820 
C 2362 404 2074 116 1658 116 
C 1171 116 845 487 845 1044 
C 845 1453 986 1722 1357 2023 
L 1741 1741 
z
M 1670 2516 
C 1101 2887 870 3181 870 3540 
C 870 3911 1158 4173 1562 4173 
C 1997 4173 2272 3892 2272 3450 
C 2272 3085 2093 2797 1728 2554 
C 1696 2535 1696 2535 1670 2516 
z
" transform="scale(0.015625)"/>
       </defs>
       <use xlink:href="#NimbusRomNo9L-Regu-38" transform="scale(0.996264)"/>
      </g>
     </g>
    </g>
    <g id="ytick_4">
     <g id="line2d_14">
      <g>
       <use xlink:href="#mfbfcae89a6" x="54.911012" y="18.007327" style="stroke: #000000; stroke-width: 0.8"/>
      </g>
     </g>
     <g id="text_4">
      <!-- $\mathdefault{10}$ -->
      <g transform="translate(16.030563 28.814654) scale(0.32 -0.32)">
       <defs>
        <path id="NimbusRomNo9L-Regu-31" d="M 1862 4339 
L 710 3757 
L 710 3667 
C 787 3699 858 3725 883 3738 
C 998 3783 1107 3808 1171 3808 
C 1306 3808 1363 3711 1363 3505 
L 1363 592 
C 1363 379 1312 232 1210 173 
C 1114 116 1024 96 755 96 
L 755 0 
L 2522 0 
L 2522 96 
C 2016 96 1914 160 1914 470 
L 1914 4327 
L 1862 4339 
z
" transform="scale(0.015625)"/>
        <path id="NimbusRomNo9L-Regu-30" d="M 1626 4352 
C 1274 4352 1005 4244 768 4020 
C 397 3661 154 2925 154 2176 
C 154 1479 365 730 666 372 
C 902 90 1229 -64 1600 -64 
C 1926 -64 2202 45 2432 269 
C 2803 621 3046 1364 3046 2138 
C 3046 3450 2464 4352 1626 4352 
z
M 1606 4186 
C 2144 4186 2432 3463 2432 2125 
C 2432 788 2150 103 1600 103 
C 1050 103 768 788 768 2119 
C 768 3476 1056 4186 1606 4186 
z
" transform="scale(0.015625)"/>
       </defs>
       <use xlink:href="#NimbusRomNo9L-Regu-31" transform="scale(0.996264)"/>
       <use xlink:href="#NimbusRomNo9L-Regu-30" transform="translate(49.8132 0) scale(0.996264)"/>
      </g>
     </g>
    </g>
   </g>
   <g id="line2d_15">
    <defs>
     <path id="m92d5668690" d="M -6 3 
L 6 -3 
" style="stroke: #000000"/>
    </defs>
    <g>
     <use xlink:href="#m92d5668690" x="54.911012" y="342.534156" style="stroke: #000000"/>
     <use xlink:href="#m92d5668690" x="1226.711012" y="342.534156" style="stroke: #000000"/>
    </g>
   </g>
   <g id="patch_3">
    <path d="M 54.911012 342.534156 
L 54.911012 18.007327 
" style="fill: none; stroke: #000000; stroke-width: 0.8; stroke-linejoin: miter; stroke-linecap: square"/>
   </g>
   <g id="patch_4">
    <path d="M 1226.711012 342.534156 
L 1226.711012 18.007327 
" style="fill: none; stroke: #000000; stroke-width: 0.8; stroke-linejoin: miter; stroke-linecap: square"/>
   </g>
   <g id="patch_5">
    <path d="M 54.911012 18.007327 
L 1226.711012 18.007327 
" style="fill: none; stroke: #000000; stroke-width: 0.8; stroke-linejoin: miter; stroke-linecap: square"/>
   </g>
  </g>
  <g id="axes_2">
   <g id="patch_6">
    <path d="M 54.911012 1182.247327 
L 1226.711012 1182.247327 
L 1226.711012 370.930254 
L 54.911012 370.930254 
z
" style="fill: #ffffff"/>
   </g>
   <g id="line2d_16">
    <path d="M -1 1091.752229 
L 54.911012 1073.98112 
L 201.386012 1013.986657 
L 347.861012 938.204774 
L 377.156012 920.802023 
L 406.451012 902.40622 
L 435.746012 883.002761 
L 465.041012 862.443175 
L 494.336012 840.226879 
L 508.983512 828.437631 
L 523.631012 816.188366 
L 538.278512 803.31682 
L 552.926012 789.582033 
L 567.573512 774.976704 
L 582.221012 759.302058 
L 596.868512 742.141079 
L 611.516012 722.745733 
L 626.163512 612.168895 
L 640.811012 563.92068 
L 655.458512 507.058712 
L 670.106012 441.86614 
L 684.753512 365.429524 
L 699.401012 275.65729 
L 728.696012 34.501403 
L 731.524402 -1 
" clip-path="url(#p2b381898e4)" style="fill: none; stroke: #ff0000; stroke-opacity: 0.8; stroke-width: 8; stroke-linecap: square"/>
   </g>
   <g id="line2d_17">
    <path d="M -1 366.201824 
L 54.911012 389.748367 
L 201.386012 462.17263 
L 347.861012 547.303553 
L 377.156012 566.474083 
L 406.451012 586.351157 
L 435.746012 607.233777 
L 465.041012 629.316017 
L 494.336012 652.844939 
L 508.983512 665.169208 
L 523.631012 678.185597 
L 538.278512 691.735239 
L 552.926012 706.0727 
L 567.573512 721.372957 
L 582.221012 737.856145 
L 596.868512 755.854277 
L 611.516012 776.263631 
L 626.163512 876.162575 
L 640.811012 898.368716 
L 655.458512 920.540284 
L 670.106012 942.216989 
L 684.753512 963.580707 
L 699.401012 984.781567 
L 728.696012 1026.903727 
L 757.991012 1068.445648 
L 787.286012 1108.085014 
L 816.581012 1144.96398 
L 845.876012 1166.581534 
L 860.523512 1171.377689 
L 875.171012 1173.928496 
L 889.818512 1175.044122 
L 904.466012 1175.785868 
L 919.113512 1176.089354 
L 933.761012 1176.436621 
L 948.408512 1176.807037 
L 963.056012 1177.063227 
L 977.703512 1177.418743 
L 992.351012 1177.628543 
L 1006.998512 1177.847267 
L 1021.646012 1178.032679 
L 1050.941012 1178.402556 
L 1109.531012 1179.012978 
L 1168.121012 1179.432871 
L 1226.711012 1179.751828 
L 1255.266518 1179.882881 
" clip-path="url(#p2b381898e4)" style="fill: none; stroke: #0000ff; stroke-opacity: 0.8; stroke-width: 8; stroke-linecap: square"/>
   </g>
   <g id="line2d_18">
    <path d="M -1 1180.081523 
L 54.911012 1179.706177 
L 201.386012 1179.295107 
L 347.861012 1177.854878 
L 377.156012 1177.930967 
L 406.451012 1177.71845 
L 435.746012 1177.47886 
L 465.041012 1177.422302 
L 494.336012 1177.088229 
L 508.983512 1176.885845 
L 523.631012 1176.779874 
L 538.278512 1176.515228 
L 552.926012 1176.178846 
L 567.573512 1175.864481 
L 582.221012 1175.436165 
L 596.868512 1174.586617 
L 611.516012 1171.477298 
L 626.163512 593.483753 
L 640.811012 592.424146 
L 655.458512 597.243682 
L 670.106012 606.89653 
L 684.753512 619.431892 
L 699.401012 635.385754 
L 728.696012 679.408959 
L 757.991012 740.777178 
L 787.286012 820.570103 
L 816.581012 933.684532 
L 845.876012 1051.026053 
L 860.523512 1095.252514 
L 875.171012 1129.367567 
L 889.818512 1152.518731 
L 904.466012 1167.71596 
L 919.113512 1176.327277 
L 933.761012 1179.18482 
L 948.408512 1182.239277 
L 963.056012 1182.007204 
L 977.703512 1181.175216 
L 992.351012 1180.110003 
L 1006.998512 1178.694178 
L 1021.646012 1177.776877 
L 1050.941012 1177.496304 
L 1109.531012 1175.169163 
L 1168.121012 1174.864809 
L 1226.711012 1173.683131 
L 1255.266518 1173.583473 
" clip-path="url(#p2b381898e4)" style="fill: none; stroke-dasharray: 22.2,9.6; stroke-dashoffset: 0; stroke: #000000; stroke-opacity: 0.5; stroke-width: 6"/>
   </g>
   <g id="PolyCollection_1">
    <defs>
     <path id="m0d06f75cae" d="M 611.516012 -75.233013 
L 611.516012 -86.003042 
L 626.163512 -663.996588 
L 640.811012 -665.056195 
L 655.458512 -660.236658 
L 670.106012 -650.583811 
L 684.753512 -638.048449 
L 699.401012 -622.094587 
L 728.696012 -578.071382 
L 757.991012 -516.703163 
L 787.286012 -436.910237 
L 816.581012 -323.795809 
L 845.876012 -206.454287 
L 860.523512 -162.227827 
L 875.171012 -128.112773 
L 889.818512 -104.961609 
L 904.466012 -89.76438 
L 919.113512 -81.153063 
L 933.761012 -78.29552 
L 933.761012 -75.233013 
L 933.761012 -75.233013 
L 919.113512 -75.233013 
L 904.466012 -75.233013 
L 889.818512 -75.233013 
L 875.171012 -75.233013 
L 860.523512 -75.233013 
L 845.876012 -75.233013 
L 816.581012 -75.233013 
L 787.286012 -75.233013 
L 757.991012 -75.233013 
L 728.696012 -75.233013 
L 699.401012 -75.233013 
L 684.753512 -75.233013 
L 670.106012 -75.233013 
L 655.458512 -75.233013 
L 640.811012 -75.233013 
L 626.163512 -75.233013 
L 611.516012 -75.233013 
z
" style="stroke: #ff0000; stroke-opacity: 0.2"/>
    </defs>
    <g clip-path="url(#p2b381898e4)">
     <use xlink:href="#m0d06f75cae" x="0" y="1257.480341" style="fill: #ff0000; fill-opacity: 0.2; stroke: #ff0000; stroke-opacity: 0.2"/>
    </g>
   </g>
   <g id="matplotlib.axis_3">
    <g id="xtick_10">
     <g id="line2d_19">
      <defs>
       <path id="m8994c42c8b" d="M 0 0 
L 0 3.5 
" style="stroke: #000000; stroke-width: 0.8"/>
      </defs>
      <g>
       <use xlink:href="#m8994c42c8b" x="54.911012" y="1182.247327" style="stroke: #000000; stroke-width: 0.8"/>
      </g>
     </g>
     <g id="text_5">
      <!-- $\mathdefault{2.0}$ -->
      <g transform="translate(34.555506 1210.861981) scale(0.32 -0.32)">
       <defs>
        <path id="NimbusRomNo9L-Regu-32" d="M 3040 875 
L 2957 907 
C 2720 544 2637 486 2349 486 
L 819 486 
L 1894 1609 
C 2464 2202 2714 2687 2714 3185 
C 2714 3823 2195 4313 1530 4313 
C 1178 4313 845 4173 608 3918 
C 403 3700 307 3496 198 3043 
L 333 3011 
C 589 3636 819 3840 1261 3840 
C 1798 3840 2163 3476 2163 2940 
C 2163 2443 1869 1850 1331 1282 
L 192 77 
L 192 0 
L 2688 0 
L 3040 875 
z
" transform="scale(0.015625)"/>
        <path id="CMMI10-3a" d="M 1229 338 
C 1229 522 1075 675 890 675 
C 704 675 550 522 550 338 
C 550 153 704 0 890 0 
C 1075 0 1229 153 1229 338 
z
" transform="scale(0.015625)"/>
       </defs>
       <use xlink:href="#NimbusRomNo9L-Regu-32" transform="scale(0.996264)"/>
       <use xlink:href="#CMMI10-3a" transform="translate(49.8132 0) scale(0.996264)"/>
       <use xlink:href="#NimbusRomNo9L-Regu-30" transform="translate(77.408707 0) scale(0.996264)"/>
      </g>
     </g>
    </g>
    <g id="xtick_11">
     <g id="line2d_20">
      <g>
       <use xlink:href="#m8994c42c8b" x="201.386012" y="1182.247327" style="stroke: #000000; stroke-width: 0.8"/>
      </g>
     </g>
     <g id="text_6">
      <!-- $\mathdefault{2.5}$ -->
      <g transform="translate(181.030506 1210.861981) scale(0.32 -0.32)">
       <defs>
        <path id="NimbusRomNo9L-Regu-35" d="M 1158 3776 
L 2413 3776 
C 2515 3776 2541 3789 2560 3834 
L 2803 4403 
L 2746 4448 
C 2650 4314 2586 4282 2451 4282 
L 1114 4282 
L 416 2759 
C 410 2746 410 2740 410 2727 
C 410 2695 435 2676 486 2676 
C 691 2676 947 2631 1210 2547 
C 1946 2309 2285 1910 2285 1274 
C 2285 656 1894 173 1395 173 
C 1267 173 1158 218 966 360 
C 762 508 614 572 480 572 
C 294 572 205 495 205 334 
C 205 90 506 -64 986 -64 
C 1523 -64 1984 110 2304 438 
C 2598 728 2733 1094 2733 1583 
C 2733 2046 2611 2342 2291 2663 
C 2010 2947 1645 3094 890 3229 
L 1158 3776 
z
" transform="scale(0.015625)"/>
       </defs>
       <use xlink:href="#NimbusRomNo9L-Regu-32" transform="scale(0.996264)"/>
       <use xlink:href="#CMMI10-3a" transform="translate(49.8132 0) scale(0.996264)"/>
       <use xlink:href="#NimbusRomNo9L-Regu-35" transform="translate(77.408707 0) scale(0.996264)"/>
      </g>
     </g>
    </g>
    <g id="xtick_12">
     <g id="line2d_21">
      <g>
       <use xlink:href="#m8994c42c8b" x="347.861012" y="1182.247327" style="stroke: #000000; stroke-width: 0.8"/>
      </g>
     </g>
     <g id="text_7">
      <!-- $\mathdefault{3.0}$ -->
      <g transform="translate(327.505506 1210.861981) scale(0.32 -0.32)">
       <defs>
        <path id="NimbusRomNo9L-Regu-33" d="M 979 2138 
C 1357 2138 1504 2125 1658 2068 
C 2054 1927 2304 1562 2304 1120 
C 2304 583 1939 167 1466 167 
C 1293 167 1165 212 928 365 
C 736 480 627 525 518 525 
C 371 525 275 436 275 301 
C 275 77 550 -64 998 -64 
C 1491 -64 1997 103 2298 365 
C 2598 628 2765 999 2765 1428 
C 2765 1754 2662 2055 2477 2253 
C 2349 2394 2227 2471 1946 2592 
C 2387 2893 2547 3130 2547 3476 
C 2547 3994 2138 4352 1549 4352 
C 1229 4352 947 4244 717 4039 
C 525 3866 429 3699 288 3315 
L 384 3290 
C 646 3757 934 3968 1338 3968 
C 1754 3968 2042 3687 2042 3284 
C 2042 3053 1946 2823 1786 2663 
C 1594 2471 1414 2375 979 2221 
L 979 2138 
z
" transform="scale(0.015625)"/>
       </defs>
       <use xlink:href="#NimbusRomNo9L-Regu-33" transform="scale(0.996264)"/>
       <use xlink:href="#CMMI10-3a" transform="translate(49.8132 0) scale(0.996264)"/>
       <use xlink:href="#NimbusRomNo9L-Regu-30" transform="translate(77.408707 0) scale(0.996264)"/>
      </g>
     </g>
    </g>
    <g id="xtick_13">
     <g id="line2d_22">
      <g>
       <use xlink:href="#m8994c42c8b" x="494.336012" y="1182.247327" style="stroke: #000000; stroke-width: 0.8"/>
      </g>
     </g>
     <g id="text_8">
      <!-- $\mathdefault{3.5}$ -->
      <g transform="translate(473.980506 1210.861981) scale(0.32 -0.32)">
       <use xlink:href="#NimbusRomNo9L-Regu-33" transform="scale(0.996264)"/>
       <use xlink:href="#CMMI10-3a" transform="translate(49.8132 0) scale(0.996264)"/>
       <use xlink:href="#NimbusRomNo9L-Regu-35" transform="translate(77.408707 0) scale(0.996264)"/>
      </g>
     </g>
    </g>
    <g id="xtick_14">
     <g id="line2d_23">
      <g>
       <use xlink:href="#m8994c42c8b" x="640.811012" y="1182.247327" style="stroke: #000000; stroke-width: 0.8"/>
      </g>
     </g>
     <g id="text_9">
      <!-- $\mathdefault{4.0}$ -->
      <g transform="translate(620.455506 1210.861981) scale(0.32 -0.32)">
       <use xlink:href="#NimbusRomNo9L-Regu-34" transform="scale(0.996264)"/>
       <use xlink:href="#CMMI10-3a" transform="translate(49.8132 0) scale(0.996264)"/>
       <use xlink:href="#NimbusRomNo9L-Regu-30" transform="translate(77.408707 0) scale(0.996264)"/>
      </g>
     </g>
    </g>
    <g id="xtick_15">
     <g id="line2d_24">
      <g>
       <use xlink:href="#m8994c42c8b" x="787.286012" y="1182.247327" style="stroke: #000000; stroke-width: 0.8"/>
      </g>
     </g>
     <g id="text_10">
      <!-- $\mathdefault{4.5}$ -->
      <g transform="translate(766.930506 1210.861981) scale(0.32 -0.32)">
       <use xlink:href="#NimbusRomNo9L-Regu-34" transform="scale(0.996264)"/>
       <use xlink:href="#CMMI10-3a" transform="translate(49.8132 0) scale(0.996264)"/>
       <use xlink:href="#NimbusRomNo9L-Regu-35" transform="translate(77.408707 0) scale(0.996264)"/>
      </g>
     </g>
    </g>
    <g id="xtick_16">
     <g id="line2d_25">
      <g>
       <use xlink:href="#m8994c42c8b" x="933.761012" y="1182.247327" style="stroke: #000000; stroke-width: 0.8"/>
      </g>
     </g>
     <g id="text_11">
      <!-- $\mathdefault{5.0}$ -->
      <g transform="translate(913.405506 1210.861981) scale(0.32 -0.32)">
       <use xlink:href="#NimbusRomNo9L-Regu-35" transform="scale(0.996264)"/>
       <use xlink:href="#CMMI10-3a" transform="translate(49.8132 0) scale(0.996264)"/>
       <use xlink:href="#NimbusRomNo9L-Regu-30" transform="translate(77.408707 0) scale(0.996264)"/>
      </g>
     </g>
    </g>
    <g id="xtick_17">
     <g id="line2d_26">
      <g>
       <use xlink:href="#m8994c42c8b" x="1080.236012" y="1182.247327" style="stroke: #000000; stroke-width: 0.8"/>
      </g>
     </g>
     <g id="text_12">
      <!-- $\mathdefault{5.5}$ -->
      <g transform="translate(1059.880506 1210.861981) scale(0.32 -0.32)">
       <use xlink:href="#NimbusRomNo9L-Regu-35" transform="scale(0.996264)"/>
       <use xlink:href="#CMMI10-3a" transform="translate(49.8132 0) scale(0.996264)"/>
       <use xlink:href="#NimbusRomNo9L-Regu-35" transform="translate(77.408707 0) scale(0.996264)"/>
      </g>
     </g>
    </g>
    <g id="xtick_18">
     <g id="line2d_27">
      <g>
       <use xlink:href="#m8994c42c8b" x="1226.711012" y="1182.247327" style="stroke: #000000; stroke-width: 0.8"/>
      </g>
     </g>
     <g id="text_13">
      <!-- $\mathdefault{6.0}$ -->
      <g transform="translate(1206.355506 1210.861981) scale(0.32 -0.32)">
       <use xlink:href="#NimbusRomNo9L-Regu-36" transform="scale(0.996264)"/>
       <use xlink:href="#CMMI10-3a" transform="translate(49.8132 0) scale(0.996264)"/>
       <use xlink:href="#NimbusRomNo9L-Regu-30" transform="translate(77.408707 0) scale(0.996264)"/>
      </g>
     </g>
    </g>
    <g id="text_14">
     <!-- $U$ -->
     <g transform="translate(629.302214 1243.378488) scale(0.32 -0.32)">
      <defs>
       <path id="NimbusRomNo9L-ReguItal-55" d="M 4896 4160 
L 3622 4160 
L 3622 4058 
C 3827 4039 3891 4026 3968 3975 
C 4032 3937 4077 3847 4077 3764 
C 4077 3662 3910 3010 3603 1929 
C 3578 1846 3552 1738 3520 1617 
C 3405 1201 3309 946 3168 728 
C 2918 332 2573 134 2125 134 
C 1594 134 1229 440 1229 888 
C 1229 1106 1427 1878 1856 3355 
C 1869 3399 1882 3445 1888 3477 
C 2022 3924 2125 4013 2560 4058 
L 2560 4160 
L 813 4160 
L 813 4058 
C 1242 4020 1312 3981 1312 3796 
C 1312 3720 1293 3617 1267 3509 
L 928 2282 
C 736 1591 653 1182 653 927 
C 653 313 1242 -128 2048 -128 
C 2886 -128 3418 325 3699 1284 
L 4230 3106 
C 4474 3937 4499 3969 4896 4058 
L 4896 4160 
z
" transform="scale(0.015625)"/>
      </defs>
      <use xlink:href="#NimbusRomNo9L-ReguItal-55" transform="scale(0.996264)"/>
     </g>
    </g>
   </g>
   <g id="matplotlib.axis_4">
    <g id="ytick_5">
     <g id="line2d_28">
      <g>
       <use xlink:href="#mfbfcae89a6" x="54.911012" y="1182.247327" style="stroke: #000000; stroke-width: 0.8"/>
      </g>
     </g>
     <g id="text_15">
      <!-- $\mathdefault{0.0}$ -->
      <g transform="translate(7.2 1193.054654) scale(0.32 -0.32)">
       <use xlink:href="#NimbusRomNo9L-Regu-30" transform="scale(0.996264)"/>
       <use xlink:href="#CMMI10-3a" transform="translate(49.8132 0) scale(0.996264)"/>
       <use xlink:href="#NimbusRomNo9L-Regu-30" transform="translate(77.408707 0) scale(0.996264)"/>
      </g>
     </g>
    </g>
    <g id="ytick_6">
     <g id="line2d_29">
      <g>
       <use xlink:href="#mfbfcae89a6" x="54.911012" y="1019.983913" style="stroke: #000000; stroke-width: 0.8"/>
      </g>
     </g>
     <g id="text_16">
      <!-- $\mathdefault{0.2}$ -->
      <g transform="translate(7.2 1030.79124) scale(0.32 -0.32)">
       <use xlink:href="#NimbusRomNo9L-Regu-30" transform="scale(0.996264)"/>
       <use xlink:href="#CMMI10-3a" transform="translate(49.8132 0) scale(0.996264)"/>
       <use xlink:href="#NimbusRomNo9L-Regu-32" transform="translate(77.408707 0) scale(0.996264)"/>
      </g>
     </g>
    </g>
    <g id="ytick_7">
     <g id="line2d_30">
      <g>
       <use xlink:href="#mfbfcae89a6" x="54.911012" y="857.720498" style="stroke: #000000; stroke-width: 0.8"/>
      </g>
     </g>
     <g id="text_17">
      <!-- $\mathdefault{0.4}$ -->
      <g transform="translate(7.2 868.527825) scale(0.32 -0.32)">
       <use xlink:href="#NimbusRomNo9L-Regu-30" transform="scale(0.996264)"/>
       <use xlink:href="#CMMI10-3a" transform="translate(49.8132 0) scale(0.996264)"/>
       <use xlink:href="#NimbusRomNo9L-Regu-34" transform="translate(77.408707 0) scale(0.996264)"/>
      </g>
     </g>
    </g>
    <g id="ytick_8">
     <g id="line2d_31">
      <g>
       <use xlink:href="#mfbfcae89a6" x="54.911012" y="695.457083" style="stroke: #000000; stroke-width: 0.8"/>
      </g>
     </g>
     <g id="text_18">
      <!-- $\mathdefault{0.6}$ -->
      <g transform="translate(7.2 706.26441) scale(0.32 -0.32)">
       <use xlink:href="#NimbusRomNo9L-Regu-30" transform="scale(0.996264)"/>
       <use xlink:href="#CMMI10-3a" transform="translate(49.8132 0) scale(0.996264)"/>
       <use xlink:href="#NimbusRomNo9L-Regu-36" transform="translate(77.408707 0) scale(0.996264)"/>
      </g>
     </g>
    </g>
    <g id="ytick_9">
     <g id="line2d_32">
      <g>
       <use xlink:href="#mfbfcae89a6" x="54.911012" y="533.193669" style="stroke: #000000; stroke-width: 0.8"/>
      </g>
     </g>
     <g id="text_19">
      <!-- $\mathdefault{0.8}$ -->
      <g transform="translate(7.2 544.000996) scale(0.32 -0.32)">
       <use xlink:href="#NimbusRomNo9L-Regu-30" transform="scale(0.996264)"/>
       <use xlink:href="#CMMI10-3a" transform="translate(49.8132 0) scale(0.996264)"/>
       <use xlink:href="#NimbusRomNo9L-Regu-38" transform="translate(77.408707 0) scale(0.996264)"/>
      </g>
     </g>
    </g>
    <g id="ytick_10">
     <g id="line2d_33">
      <g>
       <use xlink:href="#mfbfcae89a6" x="54.911012" y="370.930254" style="stroke: #000000; stroke-width: 0.8"/>
      </g>
     </g>
     <g id="text_20">
      <!-- $\mathdefault{1.0}$ -->
      <g transform="translate(7.2 381.737581) scale(0.32 -0.32)">
       <use xlink:href="#NimbusRomNo9L-Regu-31" transform="scale(0.996264)"/>
       <use xlink:href="#CMMI10-3a" transform="translate(49.8132 0) scale(0.996264)"/>
       <use xlink:href="#NimbusRomNo9L-Regu-30" transform="translate(77.408707 0) scale(0.996264)"/>
      </g>
     </g>
    </g>
   </g>
   <g id="PathCollection_1">
    <defs>
     <path id="C0_0_c9a2f17184" d="M 0 11.18034 
C 2.965061 11.18034 5.80908 10.002309 7.905694 7.905694 
C 10.002309 5.80908 11.18034 2.965061 11.18034 -0 
C 11.18034 -2.965061 10.002309 -5.80908 7.905694 -7.905694 
C 5.80908 -10.002309 2.965061 -11.18034 0 -11.18034 
C -2.965061 -11.18034 -5.80908 -10.002309 -7.905694 -7.905694 
C -10.002309 -5.80908 -11.18034 -2.965061 -11.18034 0 
C -11.18034 2.965061 -10.002309 5.80908 -7.905694 7.905694 
C -5.80908 10.002309 -2.965061 11.18034 0 11.18034 
z
"/>
    </defs>
    <g clip-path="url(#p2b381898e4)">
     <use xlink:href="#C0_0_c9a2f17184" x="-457.751488" y="1175.933491" style="fill: #020201; stroke: #020201"/>
    </g>
    <g clip-path="url(#p2b381898e4)">
     <use xlink:href="#C0_0_c9a2f17184" x="-384.513988" y="1180.788276" style="stroke: #000000"/>
    </g>
    <g clip-path="url(#p2b381898e4)">
     <use xlink:href="#C0_0_c9a2f17184" x="-238.038988" y="1181.518851" style="stroke: #000000"/>
    </g>
    <g clip-path="url(#p2b381898e4)">
     <use xlink:href="#C0_0_c9a2f17184" x="-91.563988" y="1180.689503" style="stroke: #000000"/>
    </g>
    <g clip-path="url(#p2b381898e4)">
     <use xlink:href="#C0_0_c9a2f17184" x="54.911012" y="1179.706177" style="fill: #010100; stroke: #010100"/>
    </g>
    <g clip-path="url(#p2b381898e4)">
     <use xlink:href="#C0_0_c9a2f17184" x="201.386012" y="1179.295107" style="fill: #010100; stroke: #010100"/>
    </g>
    <g clip-path="url(#p2b381898e4)">
     <use xlink:href="#C0_0_c9a2f17184" x="347.861012" y="1177.854878" style="fill: #010100; stroke: #010100"/>
    </g>
    <g clip-path="url(#p2b381898e4)">
     <use xlink:href="#C0_0_c9a2f17184" x="377.156012" y="1177.930967" style="fill: #010100; stroke: #010100"/>
    </g>
    <g clip-path="url(#p2b381898e4)">
     <use xlink:href="#C0_0_c9a2f17184" x="406.451012" y="1177.71845" style="fill: #010100; stroke: #010100"/>
    </g>
    <g clip-path="url(#p2b381898e4)">
     <use xlink:href="#C0_0_c9a2f17184" x="435.746012" y="1177.47886" style="fill: #020201; stroke: #020201"/>
    </g>
    <g clip-path="url(#p2b381898e4)">
     <use xlink:href="#C0_0_c9a2f17184" x="465.041012" y="1177.422302" style="fill: #020201; stroke: #020201"/>
    </g>
    <g clip-path="url(#p2b381898e4)">
     <use xlink:href="#C0_0_c9a2f17184" x="494.336012" y="1177.088229" style="fill: #020201; stroke: #020201"/>
    </g>
    <g clip-path="url(#p2b381898e4)">
     <use xlink:href="#C0_0_c9a2f17184" x="508.983512" y="1176.885845" style="fill: #020201; stroke: #020201"/>
    </g>
    <g clip-path="url(#p2b381898e4)">
     <use xlink:href="#C0_0_c9a2f17184" x="523.631012" y="1176.779874" style="fill: #020201; stroke: #020201"/>
    </g>
    <g clip-path="url(#p2b381898e4)">
     <use xlink:href="#C0_0_c9a2f17184" x="538.278512" y="1176.515228" style="fill: #020201; stroke: #020201"/>
    </g>
    <g clip-path="url(#p2b381898e4)">
     <use xlink:href="#C0_0_c9a2f17184" x="552.926012" y="1176.178846" style="fill: #020201; stroke: #020201"/>
    </g>
    <g clip-path="url(#p2b381898e4)">
     <use xlink:href="#C0_0_c9a2f17184" x="567.573512" y="1175.864481" style="fill: #020201; stroke: #020201"/>
    </g>
    <g clip-path="url(#p2b381898e4)">
     <use xlink:href="#C0_0_c9a2f17184" x="582.221012" y="1175.436165" style="fill: #020201; stroke: #020201"/>
    </g>
    <g clip-path="url(#p2b381898e4)">
     <use xlink:href="#C0_0_c9a2f17184" x="596.868512" y="1174.586617" style="fill: #040201; stroke: #040201"/>
    </g>
    <g clip-path="url(#p2b381898e4)">
     <use xlink:href="#C0_0_c9a2f17184" x="611.516012" y="1171.477298" style="fill: #050302; stroke: #050302"/>
    </g>
    <g clip-path="url(#p2b381898e4)">
     <use xlink:href="#C0_0_c9a2f17184" x="626.163512" y="593.483753" style="fill: #ffc77f; stroke: #ffc77f"/>
    </g>
    <g clip-path="url(#p2b381898e4)">
     <use xlink:href="#C0_0_c9a2f17184" x="640.811012" y="592.424146" style="fill: #ffc77f; stroke: #ffc77f"/>
    </g>
    <g clip-path="url(#p2b381898e4)">
     <use xlink:href="#C0_0_c9a2f17184" x="655.458512" y="597.243682" style="fill: #ffc67e; stroke: #ffc67e"/>
    </g>
    <g clip-path="url(#p2b381898e4)">
     <use xlink:href="#C0_0_c9a2f17184" x="670.106012" y="606.89653" style="fill: #ffc37c; stroke: #ffc37c"/>
    </g>
    <g clip-path="url(#p2b381898e4)">
     <use xlink:href="#C0_0_c9a2f17184" x="684.753512" y="619.431892" style="fill: #ffbf79; stroke: #ffbf79"/>
    </g>
    <g clip-path="url(#p2b381898e4)">
     <use xlink:href="#C0_0_c9a2f17184" x="699.401012" y="635.385754" style="fill: #ffb976; stroke: #ffb976"/>
    </g>
    <g clip-path="url(#p2b381898e4)">
     <use xlink:href="#C0_0_c9a2f17184" x="728.696012" y="679.408959" style="fill: #ffaa6c; stroke: #ffaa6c"/>
    </g>
    <g clip-path="url(#p2b381898e4)">
     <use xlink:href="#C0_0_c9a2f17184" x="757.991012" y="740.777178" style="fill: #ec955f; stroke: #ec955f"/>
    </g>
    <g clip-path="url(#p2b381898e4)">
     <use xlink:href="#C0_0_c9a2f17184" x="787.286012" y="820.570103" style="fill: #c17a4e; stroke: #c17a4e"/>
    </g>
    <g clip-path="url(#p2b381898e4)">
     <use xlink:href="#C0_0_c9a2f17184" x="816.581012" y="933.684532" style="fill: #845435; stroke: #845435"/>
    </g>
    <g clip-path="url(#p2b381898e4)">
     <use xlink:href="#C0_0_c9a2f17184" x="845.876012" y="1051.026053" style="fill: #452c1c; stroke: #452c1c"/>
    </g>
    <g clip-path="url(#p2b381898e4)">
     <use xlink:href="#C0_0_c9a2f17184" x="860.523512" y="1095.252514" style="fill: #2e1d12; stroke: #2e1d12"/>
    </g>
    <g clip-path="url(#p2b381898e4)">
     <use xlink:href="#C0_0_c9a2f17184" x="875.171012" y="1129.367567" style="fill: #1b110b; stroke: #1b110b"/>
    </g>
    <g clip-path="url(#p2b381898e4)">
     <use xlink:href="#C0_0_c9a2f17184" x="889.818512" y="1152.518731" style="fill: #0f0906; stroke: #0f0906"/>
    </g>
    <g clip-path="url(#p2b381898e4)">
     <use xlink:href="#C0_0_c9a2f17184" x="904.466012" y="1167.71596" style="fill: #070503; stroke: #070503"/>
    </g>
    <g clip-path="url(#p2b381898e4)">
     <use xlink:href="#C0_0_c9a2f17184" x="919.113512" y="1176.327277" style="fill: #020201; stroke: #020201"/>
    </g>
    <g clip-path="url(#p2b381898e4)">
     <use xlink:href="#C0_0_c9a2f17184" x="933.761012" y="1179.18482" style="fill: #010100; stroke: #010100"/>
    </g>
    <g clip-path="url(#p2b381898e4)">
     <use xlink:href="#C0_0_c9a2f17184" x="948.408512" y="1182.239277" style="stroke: #000000"/>
    </g>
    <g clip-path="url(#p2b381898e4)">
     <use xlink:href="#C0_0_c9a2f17184" x="963.056012" y="1182.007204" style="stroke: #000000"/>
    </g>
    <g clip-path="url(#p2b381898e4)">
     <use xlink:href="#C0_0_c9a2f17184" x="977.703512" y="1181.175216" style="stroke: #000000"/>
    </g>
    <g clip-path="url(#p2b381898e4)">
     <use xlink:href="#C0_0_c9a2f17184" x="992.351012" y="1180.110003" style="stroke: #000000"/>
    </g>
    <g clip-path="url(#p2b381898e4)">
     <use xlink:href="#C0_0_c9a2f17184" x="1006.998512" y="1178.694178" style="fill: #010100; stroke: #010100"/>
    </g>
    <g clip-path="url(#p2b381898e4)">
     <use xlink:href="#C0_0_c9a2f17184" x="1021.646012" y="1177.776877" style="fill: #010100; stroke: #010100"/>
    </g>
    <g clip-path="url(#p2b381898e4)">
     <use xlink:href="#C0_0_c9a2f17184" x="1050.941012" y="1177.496304" style="fill: #020201; stroke: #020201"/>
    </g>
    <g clip-path="url(#p2b381898e4)">
     <use xlink:href="#C0_0_c9a2f17184" x="1109.531012" y="1175.169163" style="fill: #040201; stroke: #040201"/>
    </g>
    <g clip-path="url(#p2b381898e4)">
     <use xlink:href="#C0_0_c9a2f17184" x="1168.121012" y="1174.864809" style="fill: #040201; stroke: #040201"/>
    </g>
    <g clip-path="url(#p2b381898e4)">
     <use xlink:href="#C0_0_c9a2f17184" x="1226.711012" y="1173.683131" style="fill: #040201; stroke: #040201"/>
    </g>
    <g clip-path="url(#p2b381898e4)">
     <use xlink:href="#C0_0_c9a2f17184" x="1373.186012" y="1173.171937" style="fill: #040201; stroke: #040201"/>
    </g>
    <g clip-path="url(#p2b381898e4)">
     <use xlink:href="#C0_0_c9a2f17184" x="1519.661012" y="1172.809794" style="fill: #050302; stroke: #050302"/>
    </g>
    <g clip-path="url(#p2b381898e4)">
     <use xlink:href="#C0_0_c9a2f17184" x="1812.611012" y="1172.873594" style="fill: #050302; stroke: #050302"/>
    </g>
   </g>
   <g id="line2d_34">
    <g>
     <use xlink:href="#m92d5668690" x="54.911012" y="370.930254" style="stroke: #000000"/>
     <use xlink:href="#m92d5668690" x="1226.711012" y="370.930254" style="stroke: #000000"/>
    </g>
   </g>
   <g id="patch_7">
    <path d="M 54.911012 1182.247327 
L 54.911012 370.930254 
" style="fill: none; stroke: #000000; stroke-width: 0.8; stroke-linejoin: miter; stroke-linecap: square"/>
   </g>
   <g id="patch_8">
    <path d="M 1226.711012 1182.247327 
L 1226.711012 370.930254 
" style="fill: none; stroke: #000000; stroke-width: 0.8; stroke-linejoin: miter; stroke-linecap: square"/>
   </g>
   <g id="patch_9">
    <path d="M 54.911012 1182.247327 
L 1226.711012 1182.247327 
" style="fill: none; stroke: #000000; stroke-width: 0.8; stroke-linejoin: miter; stroke-linecap: square"/>
   </g>
   <g id="legend_1">
    <g id="patch_10">
     <path d="M 1045.37087 537.593003 
L 1204.311012 537.593003 
Q 1210.711012 537.593003 1210.711012 531.193003 
L 1210.711012 393.330254 
Q 1210.711012 386.930254 1204.311012 386.930254 
L 1045.37087 386.930254 
Q 1038.97087 386.930254 1038.97087 393.330254 
L 1038.97087 531.193003 
Q 1038.97087 537.593003 1045.37087 537.593003 
z
" style="fill: #ffffff; opacity: 0.8; stroke: #cccccc; stroke-linejoin: miter"/>
    </g>
    <g id="line2d_35">
     <path d="M 1051.77087 410.930254 
L 1083.77087 410.930254 
L 1115.77087 410.930254 
" style="fill: none; stroke: #ff0000; stroke-opacity: 0.8; stroke-width: 8; stroke-linecap: square"/>
    </g>
    <g id="text_21">
     <!-- $\theta$ -->
     <g transform="translate(1141.37087 422.130254) scale(0.32 -0.32)">
      <defs>
       <path id="StandardSymL-71" d="M 1690 4395 
C 1440 4395 1184 4293 947 4095 
C 512 3744 275 3056 275 2162 
C 275 1326 486 670 864 306 
C 1114 70 1414 -64 1690 -64 
C 1939 -64 2189 38 2432 236 
C 2861 587 3104 1269 3104 2130 
C 3104 3005 2899 3655 2515 4025 
C 2266 4261 1971 4395 1690 4395 
z
M 2445 2011 
C 2432 1283 2355 868 2170 529 
C 2054 332 1850 184 1690 184 
C 1523 184 1318 338 1210 529 
C 1024 868 947 1283 934 2011 
L 2445 2011 
z
M 934 2368 
C 947 3063 1030 3483 1210 3815 
C 1318 4007 1530 4160 1690 4160 
C 1850 4160 2061 4007 2170 3815 
C 2349 3483 2432 3063 2445 2368 
L 934 2368 
z
" transform="scale(0.015625)"/>
      </defs>
      <use xlink:href="#StandardSymL-71" transform="scale(0.996264)"/>
     </g>
    </g>
    <g id="line2d_36">
     <path d="M 1051.77087 457.742443 
L 1083.77087 457.742443 
L 1115.77087 457.742443 
" style="fill: none; stroke: #0000ff; stroke-opacity: 0.8; stroke-width: 8; stroke-linecap: square"/>
    </g>
    <g id="text_22">
     <!-- $\langle T_z \rangle$ -->
     <g transform="translate(1141.37087 468.942443) scale(0.32 -0.32)">
      <defs>
       <path id="CMSY10-68" d="M 2099 4557 
C 2131 4627 2131 4640 2131 4672 
C 2131 4742 2074 4800 2003 4800 
C 1946 4800 1901 4768 1856 4653 
L 736 1715 
C 723 1677 704 1638 704 1600 
C 704 1581 704 1568 736 1491 
L 1856 -1446 
C 1882 -1517 1914 -1600 2003 -1600 
C 2074 -1600 2131 -1542 2131 -1472 
C 2131 -1453 2131 -1440 2099 -1370 
L 966 1600 
L 2099 4557 
z
" transform="scale(0.015625)"/>
       <path id="NimbusRomNo9L-ReguItal-54" d="M 4051 4160 
L 646 4160 
L 378 3179 
L 493 3153 
C 832 3835 1037 3943 2016 3943 
L 1094 575 
C 992 236 838 134 416 102 
L 416 0 
L 2272 0 
L 2272 102 
C 2163 102 2067 128 2029 128 
C 1773 128 1696 185 1696 378 
C 1696 461 1715 537 1773 754 
L 2662 3943 
L 3014 3943 
C 3475 3943 3680 3782 3680 3422 
C 3680 3339 3674 3244 3661 3134 
L 3770 3121 
L 4051 4160 
z
" transform="scale(0.015625)"/>
       <path id="NimbusRomNo9L-ReguItal-7a" d="M 518 1989 
C 653 2311 736 2368 1037 2368 
L 1971 2368 
L -13 -19 
L 45 -76 
C 147 7 230 39 339 39 
C 493 39 704 -44 1005 -230 
C 1325 -429 1542 -512 1722 -512 
C 2042 -512 2323 -281 2323 -25 
C 2323 110 2234 206 2099 206 
C 1971 206 1882 122 1882 7 
C 1882 -51 1901 -115 1939 -186 
C 1958 -225 1971 -263 1971 -282 
C 1971 -340 1901 -378 1798 -378 
C 1638 -378 1562 -327 1350 -57 
C 1069 308 947 392 576 475 
L 2432 2681 
L 2432 2751 
L 614 2751 
L 416 2015 
L 518 1989 
z
" transform="scale(0.015625)"/>
       <path id="CMSY10-69" d="M 1747 1491 
C 1779 1568 1779 1581 1779 1600 
C 1779 1619 1779 1632 1747 1709 
L 627 4653 
C 589 4762 550 4800 480 4800 
C 410 4800 352 4742 352 4672 
C 352 4653 352 4640 384 4570 
L 1517 1600 
L 384 -1357 
C 352 -1427 352 -1440 352 -1472 
C 352 -1542 410 -1600 480 -1600 
C 563 -1600 589 -1536 614 -1472 
L 1747 1491 
z
" transform="scale(0.015625)"/>
      </defs>
      <use xlink:href="#CMSY10-68" transform="scale(0.996264)"/>
      <use xlink:href="#NimbusRomNo9L-ReguItal-54" transform="translate(38.653846 0) scale(0.996264)"/>
      <use xlink:href="#NimbusRomNo9L-ReguItal-7a" transform="translate(86.573558 -14.943915) scale(0.737241)"/>
      <use xlink:href="#CMSY10-69" transform="translate(115.749639 0) scale(0.996264)"/>
     </g>
    </g>
    <g id="line2d_37">
     <path d="M 1051.77087 505.622891 
L 1083.77087 505.622891 
L 1115.77087 505.622891 
" style="fill: none; stroke-dasharray: 22.2,9.6; stroke-dashoffset: 0; stroke: #000000; stroke-opacity: 0.5; stroke-width: 6"/>
    </g>
    <g id="text_23">
     <!-- $\langle E_1 \rangle$ -->
     <g transform="translate(1141.37087 516.822891) scale(0.32 -0.32)">
      <defs>
       <path id="NimbusRomNo9L-ReguItal-45" d="M 4058 4178 
L 877 4178 
L 877 4076 
C 1274 4038 1370 3987 1370 3813 
C 1370 3743 1331 3520 1299 3405 
L 512 576 
C 403 211 352 166 -6 102 
L -6 0 
L 3238 0 
L 3635 1026 
L 3533 1077 
C 3232 672 3066 508 2790 381 
C 2554 274 2118 211 1638 211 
C 1280 211 1126 274 1126 424 
C 1126 493 1197 787 1357 1339 
C 1440 1615 1498 1822 1562 2061 
C 1786 2061 1984 2061 2061 2061 
C 2310 2061 2490 2023 2560 1960 
C 2592 1928 2605 1871 2605 1764 
C 2605 1657 2592 1574 2560 1436 
L 2688 1404 
L 3123 2889 
L 3008 2915 
C 2765 2344 2707 2304 2125 2304 
C 2048 2304 1843 2304 1619 2304 
L 2042 3801 
C 2080 3942 2150 3968 2509 3968 
C 3514 3968 3738 3884 3738 3493 
C 3738 3409 3731 3312 3725 3201 
L 3859 3188 
L 4058 4178 
z
" transform="scale(0.015625)"/>
      </defs>
      <use xlink:href="#CMSY10-68" transform="scale(0.996264)"/>
      <use xlink:href="#NimbusRomNo9L-ReguItal-45" transform="translate(38.653846 0) scale(0.996264)"/>
      <use xlink:href="#NimbusRomNo9L-Regu-31" transform="translate(99.525476 -15.050129) scale(0.737241)"/>
      <use xlink:href="#CMSY10-69" transform="translate(136.88565 0) scale(0.996264)"/>
     </g>
    </g>
   </g>
  </g>
 </g>
 <defs>
  <clipPath id="pb32c642147">
   <rect x="54.911012" y="18.007327" width="1171.8" height="324.526829"/>
  </clipPath>
  <clipPath id="p2b381898e4">
   <rect x="54.911012" y="370.930254" width="1171.8" height="811.317073"/>
  </clipPath>
 </defs>
</svg>
